<svg xmlns="http://www.w3.org/2000/svg" xmlns:xlink="http://www.w3.org/1999/xlink" viewBox="0 0 24 24" fill="#FFFFFF">
  <path d="M8.5 4 A 0.5 0.5 0 0 0 8.1171875 4.1777344L1.3066406 11.279297 A 1 1 0 0 0 1.3027344 11.283203L1.2714844 11.316406 A 1 1 0 0 0 1 12 A 1 1 0 0 0 1.2714844 12.683594 A 1 1 0 0 0 1.2988281 12.710938L8.1367188 19.84375 A 0.5 0.5 0 0 0 8.1464844 19.853516 A 0.5 0.5 0 0 0 8.5 20 A 0.5 0.5 0 0 0 9 19.5L9 15L20 15C21.105 15 22 14.105 22 13L22 12L22 11C22 9.895 21.105 9 20 9L9 9L9 4.5 A 0.5 0.5 0 0 0 8.5 4 z" fill="#FFFFFF" />
</svg>