<svg xmlns="http://www.w3.org/2000/svg" xmlns:xlink="http://www.w3.org/1999/xlink" viewBox="0 0 48 48" fill="#FFFFFF">
  <path d="M16.5 5C12.928062 5 10 7.9280619 10 11.5L10 41.5 A 1.50015 1.50015 0 0 0 12.376953 42.716797L24 34.347656L35.623047 42.716797 A 1.50015 1.50015 0 0 0 38 41.5L38 11.5C38 7.9280619 35.071938 5 31.5 5L16.5 5 z M 16.5 8L31.5 8C33.450062 8 35 9.5499381 35 11.5L35 38.572266L24.876953 31.283203 A 1.50015 1.50015 0 0 0 23.123047 31.283203L13 38.572266L13 11.5C13 9.5499381 14.549938 8 16.5 8 z" fill="#FFFFFF" />
</svg>