<svg xmlns="http://www.w3.org/2000/svg" xmlns:xlink="http://www.w3.org/1999/xlink" viewBox="0 0 48 48"><path fill="#FFA000" d="M40,12H22l-4-4H8c-2.2,0-4,1.8-4,4v8h40v-4C44,13.8,42.2,12,40,12z"/><path fill="#FFCA28" d="M40,12H8c-2.2,0-4,1.8-4,4v20c0,2.2,1.8,4,4,4h32c2.2,0,4-1.8,4-4V16C44,13.8,42.2,12,40,12z"/><path fill="#7CB342" d="M32,22.8c0-1-0.8-1.9-1.8-2L27,20.5c-0.4,0-0.6-0.4-0.4-0.7c0.3-0.6,0.5-1.3,0.3-2c-0.2-0.8-0.9-1.5-1.7-1.7c-1.7-0.4-3.2,0.8-3.2,2.4c0,0.5,0.1,0.9,0.4,1.3c0.2,0.3,0,0.7-0.4,0.7l-3.2,0.3c-1,0.1-1.8,1-1.8,2l0,3.2c0,0.4,0.4,0.6,0.7,0.4c0.6-0.3,1.3-0.5,2-0.3c0.8,0.2,1.5,0.9,1.7,1.7c0.4,1.7-0.8,3.2-2.4,3.2c-0.5,0-0.9-0.1-1.3-0.4c-0.3-0.2-0.7,0-0.7,0.4l0,3c0,1.1,0.9,2,2,2h11c1.1,0,2-0.9,2-2V22.8z"/></svg>