<svg xmlns="http://www.w3.org/2000/svg" xmlns:xlink="http://www.w3.org/1999/xlink" viewBox="0 0 24 24" fill="#FFFFFF">
  <path d="M15.5 4 A 0.5 0.5 0 0 0 15 4.5L15 9L4 9C2.895 9 2 9.895 2 11L2 12L2 13C2 14.105 2.895 15 4 15L15 15L15 19.5 A 0.5 0.5 0 0 0 15.5 20 A 0.5 0.5 0 0 0 15.853516 19.853516 A 0.5 0.5 0 0 0 15.882812 19.822266L22.693359 12.720703L22.697266 12.716797 A 1 1 0 0 0 22.728516 12.683594 A 1 1 0 0 0 23 12 A 1 1 0 0 0 22.728516 11.316406L22.716797 11.302734 A 1 1 0 0 0 22.701172 11.289062L15.859375 4.1523438 A 0.5 0.5 0 0 1 15.857422 4.1503906 A 0.5 0.5 0 0 0 15.5 4 z" fill="#FFFFFF" />
</svg>