<svg xmlns="http://www.w3.org/2000/svg" xmlns:xlink="http://www.w3.org/1999/xlink" viewBox="0 0 24 24" fill="#FFFFFF">
  <path d="M13.261719 14.867188L15.742188 17.347656C15.363281 18.070313 15.324219 18.789063 15.722656 19.1875L20.25 23.714844C20.820313 24.285156 22.0625 23.972656 23.015625 23.015625C23.972656 22.058594 24.285156 20.820313 23.714844 20.25L19.191406 15.722656C18.789063 15.324219 18.070313 15.363281 17.347656 15.738281L14.867188 13.261719 Z M 8.5 0C3.804688 0 0 3.804688 0 8.5C0 13.195313 3.804688 17 8.5 17C13.195313 17 17 13.195313 17 8.5C17 3.804688 13.195313 0 8.5 0 Z M 8.5 15C4.910156 15 2 12.089844 2 8.5C2 4.910156 4.910156 2 8.5 2C12.089844 2 15 4.910156 15 8.5C15 12.089844 12.089844 15 8.5 15Z" fill="#FFFFFF" />
</svg>